<mxfile host="app.diagrams.net" modified="2024-03-17T07:59:42.722Z" agent="Mozilla/5.0 (Windows NT 10.0; Win64; x64) AppleWebKit/537.36 (KHTML, like Gecko) Chrome/122.0.0.0 Safari/537.36" etag="4nG2CVCYWkdExo_uwKi0" version="24.0.7" type="device">
  <diagram name="Pagina-1" id="t2HPVgopXNOu1tWjpOge">
    <mxGraphModel dx="880" dy="442" grid="1" gridSize="10" guides="1" tooltips="1" connect="1" arrows="1" fold="1" page="1" pageScale="1" pageWidth="827" pageHeight="1169" math="0" shadow="0">
      <root>
        <mxCell id="0" />
        <mxCell id="1" parent="0" />
        <mxCell id="gLrQqMYHS-hWMVr9UuYL-1" value="MediaEntity" style="rounded=1;whiteSpace=wrap;html=1;fillColor=#d5e8d4;strokeColor=#82b366;" parent="1" vertex="1">
          <mxGeometry x="50" y="420" width="120" height="60" as="geometry" />
        </mxCell>
        <mxCell id="gLrQqMYHS-hWMVr9UuYL-2" value="ActorEntity" style="rounded=1;whiteSpace=wrap;html=1;fillColor=#d5e8d4;strokeColor=#82b366;" parent="1" vertex="1">
          <mxGeometry x="760" y="420" width="120" height="60" as="geometry" />
        </mxCell>
        <mxCell id="gLrQqMYHS-hWMVr9UuYL-3" value="GenreEntity" style="rounded=1;whiteSpace=wrap;html=1;fillColor=#d5e8d4;strokeColor=#82b366;" parent="1" vertex="1">
          <mxGeometry x="618" y="420" width="120" height="60" as="geometry" />
        </mxCell>
        <mxCell id="gLrQqMYHS-hWMVr9UuYL-4" value="UserEntity" style="rounded=1;whiteSpace=wrap;html=1;fillColor=#d5e8d4;strokeColor=#82b366;" parent="1" vertex="1">
          <mxGeometry x="470" y="420" width="120" height="60" as="geometry" />
        </mxCell>
        <mxCell id="gLrQqMYHS-hWMVr9UuYL-5" value="ListEntity" style="rounded=1;whiteSpace=wrap;html=1;fillColor=#d5e8d4;strokeColor=#82b366;" parent="1" vertex="1">
          <mxGeometry x="197" y="420" width="121" height="60" as="geometry" />
        </mxCell>
        <mxCell id="gLrQqMYHS-hWMVr9UuYL-7" style="rounded=0;orthogonalLoop=1;jettySize=auto;html=1;exitX=0.25;exitY=1;exitDx=0;exitDy=0;entryX=0.5;entryY=0;entryDx=0;entryDy=0;" parent="1" source="gLrQqMYHS-hWMVr9UuYL-6" target="gLrQqMYHS-hWMVr9UuYL-1" edge="1">
          <mxGeometry relative="1" as="geometry" />
        </mxCell>
        <mxCell id="gLrQqMYHS-hWMVr9UuYL-8" style="rounded=0;orthogonalLoop=1;jettySize=auto;html=1;exitX=1;exitY=0.75;exitDx=0;exitDy=0;entryX=0.5;entryY=0;entryDx=0;entryDy=0;" parent="1" source="gLrQqMYHS-hWMVr9UuYL-6" target="gLrQqMYHS-hWMVr9UuYL-5" edge="1">
          <mxGeometry relative="1" as="geometry" />
        </mxCell>
        <mxCell id="gLrQqMYHS-hWMVr9UuYL-6" value="MediaWithList" style="rounded=1;whiteSpace=wrap;html=1;fillColor=#dae8fc;strokeColor=#6c8ebf;" parent="1" vertex="1">
          <mxGeometry x="110" y="310" width="120" height="60" as="geometry" />
        </mxCell>
        <mxCell id="gLrQqMYHS-hWMVr9UuYL-10" style="edgeStyle=none;shape=connector;rounded=0;orthogonalLoop=1;jettySize=auto;html=1;exitX=0.75;exitY=1;exitDx=0;exitDy=0;entryX=0.5;entryY=0;entryDx=0;entryDy=0;labelBackgroundColor=default;strokeColor=default;align=center;verticalAlign=middle;fontFamily=Helvetica;fontSize=11;fontColor=default;endArrow=classic;" parent="1" source="gLrQqMYHS-hWMVr9UuYL-9" target="gLrQqMYHS-hWMVr9UuYL-4" edge="1">
          <mxGeometry relative="1" as="geometry" />
        </mxCell>
        <mxCell id="gLrQqMYHS-hWMVr9UuYL-9" value="UserWithFavMedia" style="rounded=1;whiteSpace=wrap;html=1;fillColor=#dae8fc;strokeColor=#6c8ebf;" parent="1" vertex="1">
          <mxGeometry x="270" y="310" width="120" height="60" as="geometry" />
        </mxCell>
        <mxCell id="gLrQqMYHS-hWMVr9UuYL-11" style="edgeStyle=none;shape=connector;rounded=0;orthogonalLoop=1;jettySize=auto;html=1;exitX=0.5;exitY=1;exitDx=0;exitDy=0;entryX=0.6;entryY=-0.067;entryDx=0;entryDy=0;entryPerimeter=0;labelBackgroundColor=default;strokeColor=default;align=center;verticalAlign=middle;fontFamily=Helvetica;fontSize=11;fontColor=default;endArrow=classic;" parent="1" source="gLrQqMYHS-hWMVr9UuYL-9" target="gLrQqMYHS-hWMVr9UuYL-1" edge="1">
          <mxGeometry relative="1" as="geometry" />
        </mxCell>
        <mxCell id="gLrQqMYHS-hWMVr9UuYL-13" style="edgeStyle=none;shape=connector;rounded=0;orthogonalLoop=1;jettySize=auto;html=1;exitX=0.25;exitY=1;exitDx=0;exitDy=0;entryX=0.5;entryY=0;entryDx=0;entryDy=0;labelBackgroundColor=default;strokeColor=default;align=center;verticalAlign=middle;fontFamily=Helvetica;fontSize=11;fontColor=default;endArrow=classic;" parent="1" source="gLrQqMYHS-hWMVr9UuYL-12" target="gLrQqMYHS-hWMVr9UuYL-4" edge="1">
          <mxGeometry relative="1" as="geometry" />
        </mxCell>
        <mxCell id="gLrQqMYHS-hWMVr9UuYL-12" value="UserWithFavGenre" style="rounded=1;whiteSpace=wrap;html=1;fillColor=#dae8fc;strokeColor=#6c8ebf;" parent="1" vertex="1">
          <mxGeometry x="680" y="310" width="120" height="60" as="geometry" />
        </mxCell>
        <mxCell id="gLrQqMYHS-hWMVr9UuYL-14" style="edgeStyle=none;shape=connector;rounded=0;orthogonalLoop=1;jettySize=auto;html=1;exitX=0.5;exitY=1;exitDx=0;exitDy=0;entryX=0.442;entryY=-0.083;entryDx=0;entryDy=0;entryPerimeter=0;labelBackgroundColor=default;strokeColor=default;align=center;verticalAlign=middle;fontFamily=Helvetica;fontSize=11;fontColor=default;endArrow=classic;" parent="1" source="gLrQqMYHS-hWMVr9UuYL-12" target="gLrQqMYHS-hWMVr9UuYL-3" edge="1">
          <mxGeometry relative="1" as="geometry" />
        </mxCell>
        <mxCell id="gLrQqMYHS-hWMVr9UuYL-16" style="edgeStyle=none;shape=connector;rounded=0;orthogonalLoop=1;jettySize=auto;html=1;exitX=0.5;exitY=1;exitDx=0;exitDy=0;entryX=0.75;entryY=0;entryDx=0;entryDy=0;labelBackgroundColor=default;strokeColor=default;align=center;verticalAlign=middle;fontFamily=Helvetica;fontSize=11;fontColor=default;endArrow=classic;" parent="1" source="gLrQqMYHS-hWMVr9UuYL-15" target="gLrQqMYHS-hWMVr9UuYL-4" edge="1">
          <mxGeometry relative="1" as="geometry" />
        </mxCell>
        <mxCell id="gLrQqMYHS-hWMVr9UuYL-15" value="UserWithFavActor" style="rounded=1;whiteSpace=wrap;html=1;fillColor=#dae8fc;strokeColor=#6c8ebf;" parent="1" vertex="1">
          <mxGeometry x="830" y="310" width="120" height="60" as="geometry" />
        </mxCell>
        <mxCell id="gLrQqMYHS-hWMVr9UuYL-17" style="edgeStyle=none;shape=connector;rounded=0;orthogonalLoop=1;jettySize=auto;html=1;exitX=0.75;exitY=1;exitDx=0;exitDy=0;entryX=0.65;entryY=0.033;entryDx=0;entryDy=0;entryPerimeter=0;labelBackgroundColor=default;strokeColor=default;align=center;verticalAlign=middle;fontFamily=Helvetica;fontSize=11;fontColor=default;endArrow=classic;" parent="1" source="gLrQqMYHS-hWMVr9UuYL-15" target="gLrQqMYHS-hWMVr9UuYL-2" edge="1">
          <mxGeometry relative="1" as="geometry" />
        </mxCell>
        <mxCell id="gLrQqMYHS-hWMVr9UuYL-19" style="edgeStyle=none;shape=connector;rounded=0;orthogonalLoop=1;jettySize=auto;html=1;exitX=0.5;exitY=0;exitDx=0;exitDy=0;labelBackgroundColor=default;strokeColor=default;align=center;verticalAlign=middle;fontFamily=Helvetica;fontSize=11;fontColor=default;endArrow=classic;" parent="1" source="gLrQqMYHS-hWMVr9UuYL-18" target="gLrQqMYHS-hWMVr9UuYL-1" edge="1">
          <mxGeometry relative="1" as="geometry" />
        </mxCell>
        <mxCell id="gLrQqMYHS-hWMVr9UuYL-20" style="edgeStyle=none;shape=connector;rounded=0;orthogonalLoop=1;jettySize=auto;html=1;exitX=0.5;exitY=0;exitDx=0;exitDy=0;entryX=0.5;entryY=1;entryDx=0;entryDy=0;labelBackgroundColor=default;strokeColor=default;align=center;verticalAlign=middle;fontFamily=Helvetica;fontSize=11;fontColor=default;endArrow=classic;" parent="1" source="gLrQqMYHS-hWMVr9UuYL-18" target="gLrQqMYHS-hWMVr9UuYL-5" edge="1">
          <mxGeometry relative="1" as="geometry" />
        </mxCell>
        <mxCell id="gLrQqMYHS-hWMVr9UuYL-18" value="ListWithMedia" style="rounded=1;whiteSpace=wrap;html=1;fillColor=#dae8fc;strokeColor=#6c8ebf;" parent="1" vertex="1">
          <mxGeometry x="120" y="525" width="120" height="60" as="geometry" />
        </mxCell>
        <mxCell id="gLrQqMYHS-hWMVr9UuYL-22" style="edgeStyle=none;shape=connector;rounded=0;orthogonalLoop=1;jettySize=auto;html=1;exitX=0.5;exitY=0;exitDx=0;exitDy=0;entryX=1;entryY=1;entryDx=0;entryDy=0;labelBackgroundColor=default;strokeColor=default;align=center;verticalAlign=middle;fontFamily=Helvetica;fontSize=11;fontColor=default;endArrow=classic;" parent="1" source="gLrQqMYHS-hWMVr9UuYL-21" target="gLrQqMYHS-hWMVr9UuYL-1" edge="1">
          <mxGeometry relative="1" as="geometry" />
        </mxCell>
        <mxCell id="gLrQqMYHS-hWMVr9UuYL-23" style="edgeStyle=none;shape=connector;rounded=0;orthogonalLoop=1;jettySize=auto;html=1;exitX=0.5;exitY=0;exitDx=0;exitDy=0;entryX=0.5;entryY=1;entryDx=0;entryDy=0;labelBackgroundColor=default;strokeColor=default;align=center;verticalAlign=middle;fontFamily=Helvetica;fontSize=11;fontColor=default;endArrow=classic;" parent="1" source="gLrQqMYHS-hWMVr9UuYL-21" target="gLrQqMYHS-hWMVr9UuYL-3" edge="1">
          <mxGeometry relative="1" as="geometry" />
        </mxCell>
        <mxCell id="gLrQqMYHS-hWMVr9UuYL-21" value="MediaWithGenres" style="rounded=1;whiteSpace=wrap;html=1;fillColor=#dae8fc;strokeColor=#6c8ebf;" parent="1" vertex="1">
          <mxGeometry x="430" y="525" width="120" height="60" as="geometry" />
        </mxCell>
        <mxCell id="gLrQqMYHS-hWMVr9UuYL-25" style="edgeStyle=none;shape=connector;rounded=0;orthogonalLoop=1;jettySize=auto;html=1;exitX=0.5;exitY=0;exitDx=0;exitDy=0;labelBackgroundColor=default;strokeColor=default;align=center;verticalAlign=middle;fontFamily=Helvetica;fontSize=11;fontColor=default;endArrow=classic;" parent="1" source="gLrQqMYHS-hWMVr9UuYL-24" target="gLrQqMYHS-hWMVr9UuYL-3" edge="1">
          <mxGeometry relative="1" as="geometry" />
        </mxCell>
        <mxCell id="gLrQqMYHS-hWMVr9UuYL-24" value="GenreWithMedias" style="rounded=1;whiteSpace=wrap;html=1;fillColor=#dae8fc;strokeColor=#6c8ebf;" parent="1" vertex="1">
          <mxGeometry x="587" y="525" width="120" height="60" as="geometry" />
        </mxCell>
        <mxCell id="gLrQqMYHS-hWMVr9UuYL-26" style="edgeStyle=none;shape=connector;rounded=0;orthogonalLoop=1;jettySize=auto;html=1;exitX=0.5;exitY=0;exitDx=0;exitDy=0;entryX=0.908;entryY=0.983;entryDx=0;entryDy=0;entryPerimeter=0;labelBackgroundColor=default;strokeColor=default;align=center;verticalAlign=middle;fontFamily=Helvetica;fontSize=11;fontColor=default;endArrow=classic;" parent="1" source="gLrQqMYHS-hWMVr9UuYL-24" target="gLrQqMYHS-hWMVr9UuYL-1" edge="1">
          <mxGeometry relative="1" as="geometry" />
        </mxCell>
        <mxCell id="gLrQqMYHS-hWMVr9UuYL-29" style="edgeStyle=none;shape=connector;rounded=0;orthogonalLoop=1;jettySize=auto;html=1;exitX=0.75;exitY=0;exitDx=0;exitDy=0;entryX=0.5;entryY=1;entryDx=0;entryDy=0;labelBackgroundColor=default;strokeColor=default;align=center;verticalAlign=middle;fontFamily=Helvetica;fontSize=11;fontColor=default;endArrow=classic;" parent="1" source="gLrQqMYHS-hWMVr9UuYL-27" target="gLrQqMYHS-hWMVr9UuYL-4" edge="1">
          <mxGeometry relative="1" as="geometry" />
        </mxCell>
        <mxCell id="gLrQqMYHS-hWMVr9UuYL-27" value="UserWithListAndMedia" style="rounded=1;whiteSpace=wrap;html=1;fillColor=#f8cecc;strokeColor=#b85450;" parent="1" vertex="1">
          <mxGeometry x="294" y="620" width="146" height="60" as="geometry" />
        </mxCell>
        <mxCell id="gLrQqMYHS-hWMVr9UuYL-28" style="edgeStyle=none;shape=connector;rounded=0;orthogonalLoop=1;jettySize=auto;html=1;exitX=0.25;exitY=0;exitDx=0;exitDy=0;entryX=0.667;entryY=0.967;entryDx=0;entryDy=0;entryPerimeter=0;labelBackgroundColor=default;strokeColor=default;align=center;verticalAlign=middle;fontFamily=Helvetica;fontSize=11;fontColor=default;endArrow=classic;" parent="1" source="gLrQqMYHS-hWMVr9UuYL-27" target="gLrQqMYHS-hWMVr9UuYL-18" edge="1">
          <mxGeometry relative="1" as="geometry" />
        </mxCell>
        <mxCell id="t42Jxi3UgauRzd1CoRSy-1" value="DefaultListEntity" style="rounded=1;whiteSpace=wrap;html=1;fillColor=#d5e8d4;strokeColor=#82b366;" vertex="1" parent="1">
          <mxGeometry x="340" y="420" width="120" height="60" as="geometry" />
        </mxCell>
        <mxCell id="t42Jxi3UgauRzd1CoRSy-3" style="rounded=0;orthogonalLoop=1;jettySize=auto;html=1;exitX=0.5;exitY=0;exitDx=0;exitDy=0;entryX=0.5;entryY=1;entryDx=0;entryDy=0;" edge="1" parent="1" source="t42Jxi3UgauRzd1CoRSy-2" target="t42Jxi3UgauRzd1CoRSy-1">
          <mxGeometry relative="1" as="geometry" />
        </mxCell>
        <mxCell id="t42Jxi3UgauRzd1CoRSy-4" style="rounded=0;orthogonalLoop=1;jettySize=auto;html=1;exitX=0.5;exitY=0;exitDx=0;exitDy=0;entryX=0.5;entryY=1;entryDx=0;entryDy=0;" edge="1" parent="1" source="t42Jxi3UgauRzd1CoRSy-2" target="gLrQqMYHS-hWMVr9UuYL-1">
          <mxGeometry relative="1" as="geometry" />
        </mxCell>
        <mxCell id="t42Jxi3UgauRzd1CoRSy-2" value="DefaultListWithMedia" style="rounded=1;whiteSpace=wrap;html=1;fillColor=#dae8fc;strokeColor=#6c8ebf;" vertex="1" parent="1">
          <mxGeometry x="260" y="525" width="140" height="60" as="geometry" />
        </mxCell>
        <mxCell id="t42Jxi3UgauRzd1CoRSy-6" style="rounded=0;orthogonalLoop=1;jettySize=auto;html=1;exitX=0.5;exitY=0;exitDx=0;exitDy=0;entryX=0.5;entryY=1;entryDx=0;entryDy=0;" edge="1" parent="1" source="t42Jxi3UgauRzd1CoRSy-5" target="gLrQqMYHS-hWMVr9UuYL-4">
          <mxGeometry relative="1" as="geometry" />
        </mxCell>
        <mxCell id="t42Jxi3UgauRzd1CoRSy-7" style="rounded=0;orthogonalLoop=1;jettySize=auto;html=1;exitX=0;exitY=0;exitDx=0;exitDy=0;" edge="1" parent="1" source="t42Jxi3UgauRzd1CoRSy-5" target="t42Jxi3UgauRzd1CoRSy-2">
          <mxGeometry relative="1" as="geometry" />
        </mxCell>
        <mxCell id="t42Jxi3UgauRzd1CoRSy-5" value="UserWithDefaultListAndMedia" style="rounded=1;whiteSpace=wrap;html=1;fillColor=#f8cecc;strokeColor=#b85450;" vertex="1" parent="1">
          <mxGeometry x="460" y="620" width="180" height="60" as="geometry" />
        </mxCell>
        <mxCell id="t42Jxi3UgauRzd1CoRSy-9" style="rounded=0;orthogonalLoop=1;jettySize=auto;html=1;exitX=0.75;exitY=1;exitDx=0;exitDy=0;" edge="1" parent="1" source="t42Jxi3UgauRzd1CoRSy-8" target="gLrQqMYHS-hWMVr9UuYL-4">
          <mxGeometry relative="1" as="geometry" />
        </mxCell>
        <mxCell id="t42Jxi3UgauRzd1CoRSy-10" style="edgeStyle=none;rounded=0;orthogonalLoop=1;jettySize=auto;html=1;exitX=0.5;exitY=1;exitDx=0;exitDy=0;entryX=0.5;entryY=0;entryDx=0;entryDy=0;strokeColor=default;align=center;verticalAlign=middle;fontFamily=Helvetica;fontSize=11;fontColor=default;labelBackgroundColor=default;endArrow=classic;" edge="1" parent="1" source="t42Jxi3UgauRzd1CoRSy-8" target="gLrQqMYHS-hWMVr9UuYL-5">
          <mxGeometry relative="1" as="geometry" />
        </mxCell>
        <mxCell id="t42Jxi3UgauRzd1CoRSy-8" value="UserWithLists" style="rounded=1;whiteSpace=wrap;html=1;fillColor=#dae8fc;strokeColor=#6c8ebf;" vertex="1" parent="1">
          <mxGeometry x="413.5" y="310" width="120" height="60" as="geometry" />
        </mxCell>
        <mxCell id="t42Jxi3UgauRzd1CoRSy-12" style="edgeStyle=none;rounded=0;orthogonalLoop=1;jettySize=auto;html=1;exitX=0.5;exitY=1;exitDx=0;exitDy=0;entryX=0.5;entryY=0;entryDx=0;entryDy=0;strokeColor=default;align=center;verticalAlign=middle;fontFamily=Helvetica;fontSize=11;fontColor=default;labelBackgroundColor=default;endArrow=classic;" edge="1" parent="1" source="t42Jxi3UgauRzd1CoRSy-11" target="gLrQqMYHS-hWMVr9UuYL-4">
          <mxGeometry relative="1" as="geometry" />
        </mxCell>
        <mxCell id="t42Jxi3UgauRzd1CoRSy-13" style="edgeStyle=none;rounded=0;orthogonalLoop=1;jettySize=auto;html=1;exitX=0.25;exitY=1;exitDx=0;exitDy=0;entryX=0.5;entryY=0;entryDx=0;entryDy=0;strokeColor=default;align=center;verticalAlign=middle;fontFamily=Helvetica;fontSize=11;fontColor=default;labelBackgroundColor=default;endArrow=classic;" edge="1" parent="1" source="t42Jxi3UgauRzd1CoRSy-11" target="t42Jxi3UgauRzd1CoRSy-1">
          <mxGeometry relative="1" as="geometry" />
        </mxCell>
        <mxCell id="t42Jxi3UgauRzd1CoRSy-11" value="UserWithDefaultLists" style="rounded=1;whiteSpace=wrap;html=1;fillColor=#dae8fc;strokeColor=#6c8ebf;" vertex="1" parent="1">
          <mxGeometry x="550" y="310" width="120" height="60" as="geometry" />
        </mxCell>
      </root>
    </mxGraphModel>
  </diagram>
</mxfile>
